<svg width="300" height="68" viewBox="0 0 300 68" fill="none" xmlns="http://www.w3.org/2000/svg">
<path d="M67.0941 21.1589C64.7952 19.8419 62.2408 19.1396 59.5162 19.1396C55.5995 19.1396 52.1086 20.5443 49.2137 23.1782C46.2336 25.8999 44.4456 29.5873 43.8495 34.3283H43.3387C42.9981 29.6751 41.4655 25.9877 38.6557 23.266C35.7608 20.5443 32.355 19.1396 28.2681 19.1396C24.3514 19.1396 20.9456 20.5443 18.0507 23.1782C15.0706 25.8999 13.2826 29.5873 12.6866 34.3283H12.1757L11.75 20.5443H0V65.8471H12.1757V42.23C12.1757 38.1035 13.0271 34.8551 14.73 32.4846C16.4329 30.2019 18.9021 28.9727 22.0525 28.9727C24.8623 28.9727 27.076 30.0263 28.7789 32.0456C30.3967 34.1527 31.2481 36.9622 31.2481 40.474V65.8471H43.3387V42.23C43.3387 38.1035 44.1901 34.8551 45.893 32.4846C47.5959 30.2019 50.0651 28.9727 53.2155 28.9727C56.1104 28.9727 58.3242 30.0263 59.9419 32.0456C61.5597 34.0649 62.4111 36.8744 62.4111 40.474V65.8471H74.5017V35.733C74.5017 32.3968 73.8205 29.4117 72.4582 26.8656C71.0959 24.4073 69.3078 22.4758 67.0941 21.1589Z" fill="#101217"/>
<path d="M83.076 45.0394C80.0959 47.4099 78.6485 50.6584 78.6485 54.697C78.6485 58.8234 80.0108 61.9841 82.7354 64.0912C85.4601 66.1983 89.1213 67.2519 93.5488 67.2519C98.2318 67.2519 102.148 65.9349 105.214 63.2132C108.279 60.5793 110.067 56.7163 110.663 51.7119H111.089L111.429 65.8471H123.009V36.8744C123.009 31.6944 121.221 27.4802 117.73 24.1439C114.154 20.8077 108.875 19.1396 101.808 19.1396C96.9546 19.1396 92.8676 20.0175 89.547 21.7734C86.1412 23.5294 83.5869 25.8999 81.884 28.7971C80.1811 31.7822 79.2445 35.0307 79.0742 38.5425H91.0796C91.335 35.5574 92.3568 33.0991 94.23 31.2554C96.018 29.4995 98.5723 28.5338 101.893 28.5338C105.043 28.5338 107.342 29.2361 108.875 30.5531C110.322 31.9578 111.089 33.5381 111.089 35.2941C111.089 37.5768 109.982 39.2449 107.853 40.2106C105.639 41.2642 101.893 41.7032 96.4437 41.6154C90.4836 41.6154 85.9709 42.7567 83.076 45.0394ZM92.6122 57.6821C91.4202 56.7163 90.9093 55.3994 90.9093 53.6435C90.9093 52.0631 91.4202 50.834 92.4419 49.8682C93.4637 48.9903 94.9111 48.4635 96.7843 48.2879C100.19 48.1123 102.83 47.6733 104.703 46.9709C106.576 46.3564 108.023 45.4784 108.875 44.2493C109.726 43.1079 110.322 41.5276 110.663 39.5961H111.089V46.532C111.089 48.7269 110.407 50.7462 109.215 52.6777C108.023 54.6092 106.406 56.1895 104.362 57.3309C102.319 58.56 100.105 59.0868 97.7209 59.0868C95.5071 59.0868 93.8042 58.6478 92.6122 57.6821Z" fill="#101217"/>
<path d="M139.889 37.9279H139.379L139.038 20.5443H127.288V65.8471H139.379V47.1465C139.549 42.9323 140.23 39.5961 141.592 37.3134C142.87 35.0307 144.828 33.3625 147.552 32.309C150.192 31.2554 153.938 30.6409 158.706 30.2897V19.7541C154.364 19.7541 150.958 20.3687 148.489 21.5101C146.02 22.7392 144.147 24.5829 142.87 27.129C141.507 29.7629 140.571 33.3625 139.889 37.9279Z" fill="#101217"/>
<path d="M193.383 28.2704V20.5443H180.696L180.356 8.69182H168.861V20.5443H161.965V28.2704H168.861V53.2045C168.861 58.2088 170.053 61.6329 172.437 63.5644C174.821 65.4959 178.653 66.3739 184.017 66.3739C185.55 66.4617 188.7 66.2861 193.298 65.9349V56.3651C191.169 56.5407 189.211 56.6285 187.338 56.6285C184.783 56.6285 183.08 56.2773 182.229 55.575C181.378 54.8726 180.952 53.3801 180.952 51.0974V28.2704H193.383Z" fill="#101217"/>
<path d="M199.348 12.3793C200.71 13.784 202.413 14.4864 204.371 14.4864C206.33 14.4864 208.033 13.784 209.395 12.3793C210.757 10.9745 211.524 9.30639 211.524 7.28708C211.524 5.26777 210.757 3.51185 209.395 2.10711C208.033 0.702371 206.33 0 204.371 0C202.413 0 200.71 0.790167 199.348 2.19491C197.986 3.59964 197.304 5.35557 197.304 7.28708C197.304 9.30639 197.986 10.9745 199.348 12.3793ZM198.411 65.8471H210.502V20.5443H198.411V65.8471Z" fill="#101217"/>
<path d="M217.689 65.8471H229.779V4.38981H217.689V65.8471Z" fill="#101217"/>
<path d="M235.813 65.8471H247.903V4.38981H235.813V65.8471Z" fill="#101217"/>
<path d="M263.899 64.3546C267.56 66.2861 271.647 67.2519 276.074 67.2519C280.502 67.2519 284.504 66.2861 288.165 64.3546C291.826 62.4231 294.721 59.5258 296.85 55.8384C298.893 52.1509 300 47.9367 300 43.0201C300 38.2791 298.893 34.1527 296.765 30.4653C294.636 26.8656 291.741 24.0561 288.165 22.1246C284.504 20.1931 280.502 19.1396 276.074 19.1396C271.647 19.1396 267.56 20.1931 263.899 22.1246C260.237 24.0561 257.343 26.8656 255.214 30.4653C253.085 34.1527 252.064 38.2791 252.064 43.0201C252.064 47.9367 253.085 52.1509 255.214 55.8384C257.343 59.5258 260.237 62.4231 263.899 64.3546ZM284.589 53.9946C282.545 56.5407 279.65 57.7699 276.074 57.7699C272.328 57.7699 269.433 56.5407 267.39 53.9946C265.346 51.5363 264.324 47.8489 264.324 43.0201C264.324 38.3669 265.346 34.7673 267.39 32.309C269.433 29.8507 272.328 28.6215 276.074 28.6215C279.65 28.6215 282.545 29.8507 284.589 32.309C286.632 34.7673 287.739 38.3669 287.739 43.0201C287.739 47.8489 286.632 51.5363 284.589 53.9946Z" fill="#101217"/>
</svg>
